<?xml version="1.0" standalone="no"?>
<!DOCTYPE svg PUBLIC "-//W3C//DTD SVG 20010904//EN"
 "http://www.w3.org/TR/2001/REC-SVG-20010904/DTD/svg10.dtd">
<svg version="1.0" xmlns="http://www.w3.org/2000/svg"
 width="700.000000pt" height="700.000000pt" viewBox="0 0 700.000000 700.000000"
 preserveAspectRatio="xMidYMid meet">
<metadata>
Created by potrace 1.14, written by Peter Selinger 2001-2017
</metadata>
<g transform="translate(0.000000,700.000000) scale(0.100000,-0.100000)"
fill="#000000" stroke="none">
<path d="M1199 6974 c0 -10 -2 -28 -4 -39 -18 -86 -22 -243 -10 -365 14 -145
80 -363 140 -460 12 -19 24 -42 27 -50 21 -56 173 -230 286 -327 l34 -28 -54
-37 c-178 -121 -408 -173 -640 -144 -146 18 -285 71 -424 163 l-27 17 7 -47
c10 -66 57 -201 101 -288 47 -94 94 -160 167 -231 55 -54 163 -128 187 -128 6
0 11 -3 11 -6 0 -15 -116 -214 -148 -254 -123 -154 -300 -255 -502 -286 -55
-9 -198 -3 -255 10 -33 8 -61 13 -63 11 -2 -2 20 -38 49 -80 91 -132 239 -249
369 -292 58 -19 215 -25 258 -10 22 8 22 8 23 -100 1 -59 3 -117 4 -128 31
-221 -25 -391 -178 -538 -66 -63 -223 -149 -257 -140 -33 9 -22 -5 20 -27 135
-69 300 -96 410 -67 8 2 29 8 45 12 17 4 49 21 72 37 23 15 44 28 47 28 3 0
25 -39 49 -87 50 -101 85 -164 135 -243 35 -54 131 -190 142 -200 3 -3 17 -21
32 -42 15 -20 33 -42 41 -50 7 -7 23 -26 35 -43 51 -65 186 -209 357 -380 158
-157 257 -252 503 -482 30 -28 62 -51 71 -51 14 1 65 -3 211 -17 87 -8 156
-16 170 -20 8 -2 35 -7 60 -10 67 -9 283 -53 375 -76 421 -105 893 -309 1228
-531 32 -21 61 -38 63 -38 3 0 10 -4 17 -10 7 -5 71 -51 142 -102 72 -50 132
-94 135 -97 3 -3 48 -40 100 -82 167 -133 291 -247 483 -441 135 -138 147
-148 148 -122 0 16 2 38 5 49 8 44 17 166 18 265 1 130 -6 212 -29 345 -39
224 -159 521 -299 745 -42 68 -149 221 -177 255 -124 148 -162 192 -228 260
-334 345 -651 592 -1338 1040 -180 117 -332 218 -338 222 -13 10 -64 45 -88
58 -18 10 -193 132 -212 146 -193 156 -254 215 -312 299 -74 109 -103 192
-108 310 -9 201 85 369 255 454 193 98 416 78 610 -54 132 -89 377 -305 546
-480 137 -141 168 -193 229 -384 33 -105 44 -125 84 -167 85 -88 212 -101 386
-40 91 32 226 100 232 117 2 6 -14 10 -36 11 -52 1 -160 38 -191 66 -26 23
-37 42 -116 218 -25 57 -55 124 -66 149 -36 79 -168 383 -168 387 0 18 284
-83 410 -147 140 -70 137 -66 135 -135 -3 -80 -22 -208 -40 -266 -4 -10 -2
-19 3 -19 19 0 162 111 222 174 46 47 52 -29 16 -197 -14 -61 -28 -121 -32
-131 -10 -25 -1 -20 101 60 151 116 272 255 387 446 l38 61 -93 50 c-242 129
-431 312 -481 465 -43 132 -36 283 19 416 10 23 11 36 5 36 -35 0 -181 85
-265 154 -218 179 -352 405 -392 661 -10 65 -10 263 0 338 l8 59 -42 -24
c-105 -57 -255 -249 -335 -426 -11 -24 -19 -31 -27 -24 -40 31 -292 112 -441
143 -212 43 -347 50 -666 36 -103 -5 -161 0 -326 27 -130 22 -388 138 -528
237 -146 104 -305 274 -394 421 -32 52 -102 191 -102 203 0 6 -7 19 -15 29
-15 20 -15 20 -16 0z m2893 -1991 c129 -127 206 -207 193 -201 -5 3 -113 43
-240 88 -126 46 -234 86 -238 90 -9 8 162 132 175 128 4 -2 53 -49 110 -105z"/>
<path d="M4864 3335 c6 -121 10 -149 33 -245 84 -357 321 -700 618 -897 99
-65 266 -137 402 -173 394 -105 734 -21 975 239 105 114 104 115 -14 75 -122
-41 -152 -48 -278 -61 -170 -18 -317 2 -462 63 -74 30 -221 126 -242 156 -15
21 -13 23 47 56 161 89 266 217 283 345 l7 47 -46 -19 c-51 -22 -102 -37 -157
-46 -19 -3 -43 -8 -52 -11 -33 -10 -213 -6 -276 5 -131 25 -325 102 -400 160
-24 17 -24 18 -8 64 9 26 18 60 21 77 5 26 2 30 -22 36 -153 33 -288 103 -397
203 l-38 36 6 -110z"/>
</g>
</svg>
